<svg width="80" height="80" viewBox="0 0 80 80" fill="none" xmlns="http://www.w3.org/2000/svg">
<path d="M40 0C17.9086 0 0 17.9086 0 40C0 62.0914 17.9086 80 40 80C62.0914 80 80 62.0914 80 40C80 17.9086 62.0914 0 40 0ZM39.2773 10.0244C44.1313 10.0361 48.0312 11.571 50.7519 14.3799C53.4727 17.1887 54.7202 20.6387 54.7461 24.0918C54.7123 27.7307 54.4344 29.4061 51.5087 33.8037C48.5829 38.2015 41.2271 44.565 42.6171 51.709L37.0019 51.6113C34.5147 46.6067 35.1467 40.5864 37.0409 36.6016C38.9352 32.6168 40.355 31.3363 41.8945 27.6514C43.4339 23.9665 39.7864 19.8034 36.4599 19.7753C33.1333 19.7473 31.8663 21.1207 30.8251 23.4716H26.2695C25.876 23.2444 25.0275 22.9912 25.3075 18.8378C25.5877 14.6845 34.4234 10.0127 39.2773 10.0244ZM39.5605 56.3672C43.3164 56.3672 46.3525 59.4082 46.3525 63.1641C46.3525 66.9199 43.3164 69.9756 39.5605 69.9756C35.8047 69.9756 32.7637 66.9199 32.7637 63.1641C32.7637 59.4082 35.8047 56.3672 39.5605 56.3672Z" fill="#1E1D60"/>
</svg>
